<?xml version="1.0" encoding="UTF-8"?>
<svg width="600" height="600" version="1.1" viewBox="0 0 159 159" xmlns="http://www.w3.org/2000/svg"><g><path d="m35 43c0.7-3 2-6 4-8 0.8-1 2-2 2-3 1-1 2-2 3-3 5-5 12-8 18-11 2-0.6 3-1 5-2 5-2 11-3 17-3 3-0.09 4 0.04 7 0.3 4 0.4 8 1 11 3 2 0.9 4 2 6 3 6 3 11 6 16 10 1 0.9 2 2 3 3 4 3 8 7 11 11 2 2 2 3 4 5 1 2 2 3 3 4 0.6 1 1 3 2 4 0.6 2 0.6 3 1 5 0.04 1 0.1 2 0.1 3-2e-3 3-0.2 6-0.4 8-0.3 3-0.5 6-1 9-0.2 1-0.5 3-0.7 4-1 7-3 14-5 21-0.4 1-0.8 3-1 4-1 4-3 8-5 12-1 2-2 4-4 6-0.6 0.8-1 2-2 2-2 3-5 5-9 6-2 1-3 1-6 2-1 0.2-2 0.4-3 0.6-1 0.2-3 0.3-4 0.4-6 0.4-11 0.3-17 0.2-6-0.1-13-0.2-19-0.6-2-0.09-3-0.2-5-0.3-2-0.1-3-0.3-5-0.5-3-0.6-5-0.7-8-2-3-0.8-5-2-8-3-4-2-4-3-8-5-1-1-3-2-4-3-4-4-8-8-11-12-1-1-2-3-3-4-1-1-2-3-3-4-3-5-5-11-6-17-0.6-4-0.5-4-0.6-8 0.3-4 0.2-5 1-8 1-5 3-9 5-14 0.8-2 2-3 2-5 4-7 8-13 13-19 0.7-0.8 1-2 2-2 2-2 4-4 6-6 6-4-0.5-12-6-8-0.9 0.7-1 1-2 2-2 2-4 3-5 5-2 3-3 3-5 6-4 5-8 11-11 17-2 5-3 6-5 11-0.7 2-1 4-2 5-2 5-2 10-2 16 0.2 5 0.04 6 0.8 10 1 7 4 14 8 20 1 2 2 3 3 5 1 2 2 3 4 5 4 5 8 9 13 13 1 1 3 2 5 4 4 3 5 4 9 6 3 2 6 3 10 4 4 1 6 1 10 2 2 0.2 3 0.4 5 0.5 2 0.1 3 0.2 5 0.3 7 0.4 13 0.5 20 0.6 6 0.09 12 0.2 18-0.2 2-0.1 3-0.3 5-0.5 1-0.2 3-0.5 4-0.8 4-1 5-1 8-3 3-2 7-4 9-6 0.9-0.9 2-2 3-3 0.8-1 2-2 2-3 2-2 3-5 4-7 1-3 3-6 4-8 0.6-1 1-3 2-4 0.4-1 0.9-3 1-4 2-7 4-14 5-22 0.2-1 0.5-3 0.7-4 0.5-3 0.8-6 1-9 0.2-3 0.5-7 0.4-10-0.03-1-0.2-3-0.3-4-0.5-3-0.6-4-1-6-1-4-3-8-6-11-2-3-2-3-5-6-4-4-8-8-12-12-1-1-2-2-4-3-2-2-5-4-7-5-3-2-7-4-10-6-2-1-4-2-7-3-4-2-9-3-14-3-4-0.2-5-0.4-8-0.3-7 0.2-13 1-19 3-2 0.6-4 1-5 2-8 3-15 7-21 13-1 1-3 3-4 4-1 1-2 3-3 4-3 4-5 8-6 12-0.09 0.4-0.1 0.9-0.2 1-0.5 7 9 8 10 0.7z" fill="#f60"/><path d="m48 24c-2 1-3 2-5 3-1 0.9-3 2-4 3-1 1-2 2-4 3-1 0.9-2 2-3 3-1 1-2 2-3 3-0.9 1-2 2-3 4-0.9 1-2 3-3 4-1 1-2 3-3 4-0.2 0.3-0.4 0.6-0.6 0.9-0.6 1-0.4 0.6-1 2-0.7 1-1 2-2 3-1 2-2 5-3 8-0.6 2-1 4-2 6-0.3 1-0.4 2-0.6 3-0.6 3-0.8 6-1 8-0.07 2-0.1 3 0.1 5 0.1 1 0.3 1 0.5 2 0.5 2 1 4 2 5 0.6 2 1 4 2 6 0.6 2 1 4 2 5 0.5 1 0.7 1 1 2 1 2 2 4 4 5 0.4 0.4 0.8 0.8 1 1 2 2 4 4 6 6 1 1 2 2 3 3 0.9 0.7 2 1 3 2 2 2 5 3 7 5 2 1 5 3 7 4 2 1 5 2 7 3 2 0.7 4 1 6 2 2 0.6 4 1 6 1 2 0.5 4 0.7 7 0.9 2 0.09 4 0.09 6 0.09 2-2e-3 3-5e-3 5-7e-3 2-1e-3 3-2e-3 5-2e-3 2 0.01 3-0.07 5-0.2 1-0.1 3-0.1 4-0.2 2-7e-3 3-8e-3 5-0.07 2-0.1 4-0.4 7-0.8 1-0.2 2-0.4 3-0.7 1-0.3 2-0.8 3-1 2-0.7 3-1 5-2 2-0.5 3-1 5-2 1-0.5 2-1 3-2 0.8-0.6 1-0.9 2-2 2-2 2-4 3-6 0.9-2 2-5 3-7 1-2 2-4 3-7 1-2 2-4 3-7 1-3 2-6 3-8 0.4-2 1-3 2-5 0.4-1 0.4-1 0.7-3 0.4-2 0.8-4 1-6 0.2-2 0.2-2 0.3-4 0.2-4 0.2-7 0.01-11-0.08-2-0.4-4-0.8-7-0.3-2-0.6-3-1-5-0.4-2-0.8-3-1-5-0.3-1-0.6-3-0.9-4-0.4-2-1-3-2-4-0.2-0.4-0.5-0.8-0.7-1-2-3-6-6-9-9-3-2-6-4-9-6-3-2-5-3-8-4-3-1-7-3-10-4-2-0.9-5-2-7-3-2-0.8-4-1-6-2-3-0.7-5-1-8-1-3-0.4-6-0.5-9-0.4-2 0.03-3 0.1-5 0.4-0.8 0.1-2 0.3-3 0.5-3 0.5-6 1-9 2-3 0.8-5 2-8 3-1 0.7-3 2-4 2-0.2 0.1-0.3 0.2-0.5 0.3-6 4-0.2 12 6 8 0.07-0.05 0.1-0.1 0.2-0.1 1-0.7 2-1 4-2 2-1 4-2 6-3 2-0.8 5-1 7-2 2-0.4 4-0.7 6-0.7 2-0.04 5 0.02 7 0.4 2 0.3 4 0.6 6 1 2 0.4 3 1 5 2 3 1 5 2 8 3 3 1 7 2 10 4 2 1 5 2 7 4 3 2 5 3 8 5 2 2 5 4 7 6 0.6 0.9 1 2 1 3 0.3 1 0.6 2 0.8 4 0.4 2 0.7 3 1 5 0.4 2 0.6 3 0.9 5 0.3 2 0.6 4 0.6 5 0.2 3 0.2 6-4e-3 10-0.08 1-0.1 2-0.2 3-0.2 2-0.5 3-0.9 5-0.5 2-1 5-2 7-0.7 3-1 5-2 8-0.7 2-1 4-2 6-1 2-2 4-3 7-1 2-2 5-3 7-0.4 0.8-0.7 2-1 3-0.04 0.08-0.2 0.5-0.3 0.6-0.05 0.09-0.1 0.2-0.2 0.3-0.09 0.1-0.2 0.2-0.3 0.3-0.3 0.3-0.7 0.5-1 0.7-1 0.6-3 1-4 1-2 0.6-3 1-5 2-0.7 0.3-0.9 0.4-2 0.6-0.1 0.06-0.3 0.1-0.4 0.2-0.7 0.2-1 0.4-2 0.5-2 0.3-3 0.6-5 0.7-2 0.06-3 0.05-5 0.06-2 0.02-3 0.05-5 0.2-1 0.1-3 0.2-4 0.2-2 1e-4 -3 3e-4 -5 2e-3 -2 2e-3 -3 5e-3 -5 7e-3 -2-5e-4 -3 2e-3 -5-0.07-2-0.1-4-0.3-5-0.7-2-0.3-4-0.6-5-1-2-0.5-3-1-5-2-2-0.8-4-2-6-3-2-1-4-2-6-4-2-2-5-3-7-4-0.9-0.6-2-1-3-2-0.8-0.6-1-1-2-2-2-2-4-4-6-6-1-1-2-3-3-4-0.4-0.8-0.5-1-0.9-2-0.6-1-1-3-2-4-0.6-2-1-4-2-6-0.6-2-1-3-2-5-0.08-0.3-0.2-0.6-0.2-0.9-0.2-0.9-0.09-2-0.07-3 0.1-2 0.3-5 0.8-7 0.1-0.7 0.3-1 0.5-2 0.4-2 0.9-3 1-5 0.8-2 2-4 3-6 0.5-0.9 1-2 2-3 0.6-0.9 0.5-0.9 1-2 0.1-0.2 0.3-0.5 0.4-0.7 0.8-1 2-2 3-3 1-1 2-3 3-4 0.8-1 2-2 2-3 0.6-0.8 1-2 2-2 0.8-0.8 2-2 2-2 1-0.8 2-2 3-3 1-0.9 3-2 4-3 2-1 4-2 5-4 6-4 0.06-12-6-8z" fill="#f9f9f9"/><path d="m62 44c0.4 0.01 0.7 0.02 1 0.03 1 0.08 3 0.2 4 0.3 4 0.3 8 0.6 13 0.8 6 0.4 12 0.8 19 1 2 0.1 3 0.4 5 0.7 3 0.6 6 1 9 2 2 0.5 4 0.8 5 1 0.8 0.3 2 0.6 2 1 0.2 0.09 0.4 0.2 0.6 0.3 0.1 0.08-0.3-0.1-0.4-0.2-4-10-1 0.4 0.6-8 0.1-0.6-1 0.09-2 0.1-0.9 0.04-2 0.08-3 0.09-3 0.03-4-0.06-7-0.2-5-0.3-11-0.9-16-2-3-0.5-4-0.7-7-1-3-0.7-6-2-9-2-2-0.7-4-1-7-2-3-0.8-5-2-8-2-0.5-0.06-1-0.07-2-0.1-3 0.01-6 0.5-9 1-2 0.4-4 0.8-6 1-1 0.5-3 1-4 2-0.3 0.2-0.6 0.4-0.8 0.6-1 1-3 3-4 4-0.9 1-2 2-2 4-0.6 1-1 2-2 3-0.7 1-1 3-2 4-0.8 2-2 3-2 5-0.7 2-2 3-3 5-0.9 1-2 3-3 4 2-4 6-0.03 8 1 0.3 0.1 0.03 0.8 0.3 1 0.2 0.1 0.1-0.4 0.2-0.6 0.1-0.5 0.3-1 0.4-1 0.7-2 2-5 3-7 0.08-0.3 0.5-0.7 0.2-0.8-3-1-6-3-9-3-0.3-0.08-0.3 0.6-0.4 0.9-0.5 1-1 2-1 4-1 3-2 6-3 8-0.7 2-1 5-2 7-0.8 2-1 5-2 7-0.2 1-0.3 3-0.2 4 0.02 0.4 0.07 0.7 0.1 1 0.3 2 1 4 2 6 0.2 0.3 0.4 0.5 0.6 0.8 0.2 0.2 0.3 0.4 0.5 0.6 0.3 0.4 0.5 0.8 0.8 1 0.6 1 1 2 2 3 0.8 1 2 3 2 4 1 2 3 4 4 5 1 2 3 3 4 4 1 2 3 3 4 4 1 1 3 3 5 4 2 1 4 2 6 3 2 0.9 4 2 7 2 2 0.4 3 0.9 5 1 2 0.5 3 0.9 5 1 2 0.4 3 0.7 5 1 2 0.4 4 0.6 6 0.8 2 0.2 5 0.2 7 0.2 3 4e-3 6-0.3 9-0.6 3-0.3 5-0.6 8-0.9 2-0.2 4-0.4 6-0.7 2-0.2 4-0.5 6-0.9 1-0.3 3-0.6 4-1 0.3-0.1 0.6-0.3 0.9-0.4 1-0.6 2-2 4-2 1-0.9 2-2 3-3 1-1 2-3 3-5 1-2 2-4 3-6 1-2 2-5 3-7 0.9-3 2-5 2-8 0.8-3 2-6 2-9 0.5-2 1-4 1-6 0.5-2 0.9-5 1-7 0.3-2 0.4-5 0.5-8 3e-3 -2-0.09-5-0.3-7-0.3-2-0.7-5-1-7-0.5-2-1-4-2-6-0.2-0.4-0.5-0.8-0.7-1-1-2-3-3-4-5-1-0.9-2-1-3-2-3-2-6-3-9-4-3-1-5-2-8-3-3-0.9-6-2-9-3-3-0.8-5-1-8-2-3-0.8-6-2-8-2-2-0.4-4-0.9-6-1-2-0.3-4-0.4-6-0.5-2 7e-3 -4 0.1-6 0.4-0.4 0.07-0.9 0.2-1 0.2-2 0.4-4 0.9-5 2-0.9 0.4-2 0.7-3 1-2 0.8-3 2-5 3-0.9 0.7-1 1-2 2-2 2-3 3-4 5-2 2-3 5-5 7-2 2-3 5-4 7-2 4-2 2 7 7 0.3 0.2 0.5-0.6 0.8-0.8 0.4-0.4 0.9-0.7 1-1 2-2 3-2 5-4 0.7-0.5 1-1 2-1 0.4-0.2 2-0.6 1-0.6-5 0.1 3 5-6-4-0.2 0.07-0.5 0.04-0.6 0.2-0.6 0.7-1 2-2 2-0.6 0.8-1 2-2 3-0.6 0.7-1 1-2 2-0.5 0.7-1 1-1 2 0.7 3 2 5 4 7 2-0.2 4-0.2 5-0.6 1-0.3 3-0.9 4-1 1-0.5 3-1 4-2 1-0.5 3-1 4-1 3-0.9 2-2 3-0.6-2-2-4-4-5-5 0.01-0.4 0.4-1 0.04-1-0.6-0.02-1 0.8-2 1-1 0.8-2 1-3 2-0.2 0.1 0.5-0.3 0.7-0.4 2 2 4 4 6 6 0.2 0.2 0.5 9e-3 0.6-0.1 0.9-0.5 2-1 3-2 3-2 7-4 10-6 2-0.9 3-1 4-2 0.2-0.07-0.5 0.5-0.6 0.3-2-2-3-5-5-7-0.2-0.2-0.5 0.03-0.8 0.2-1 0.5-2 1-3 2-4 2-3 2-7 4-0.9 0.5-2 1-3 2-0.7 0.4-2 0.7-2 2-0.6 10 0.03 9 7 10 6 0.2 12 0.1 18 0.2 2 0.04 3 0.05 5 0.2 3 0.3 4 0.09 2 0.7-0.8-1-1-3-2-4-0.3-0.3-0.8-0.2-1-0.09-1 0.4-2 1-4 2-2 1-7 2-10 3-1 0.3-3 0.5-4 0.8-0.6-0.05-1 0.1-2-0.1-0.5-0.2 1-0.4 2 0.02 2 2 1 5 4 4 1-0.5 2-1 4-2 2-0.6 3-1 5-2 3-0.8 6-2 8-2 3-0.5 10 2-3-7-0.9-0.6-2 0.9-3 1-2 0.6-3 1-5 2-4 1-6 2-10 2-0.7-0.02-2-1-2-0.5 1 2 3 2 4 4 3 3-3 3 4 2 2-0.2 7-0.9 10-0.4 0.6 0.1 1 0.6 1 1-0.03 0.5-1 0.1-1-0.06-0.6-0.2-0.7-1-1-1-0.8-0.09-2 0.5-2 0.8-2 0.4-3 1-5 1-4 0.6-8 0.7-11 0.02-3-0.4-6-1-8-3-0.7-0.5-1-1-2-2 0.05-0.5-0.08-1 0.1-2 0.2-0.5 0.7-0.7 1-1 0.7-0.6 1-1 2-2 2-2 5-3 7-4 1-0.5 2-0.8 3-1 0.7-0.03 1-0.3 2-0.08 0.2 0.06-0.3 0.6-0.6 0.5-1-0.4-2-1-3-2-2-1-2 0.6-4 2-2 1-3 2-5 3-5 2-7 3-12 4-2 0.3-3 0.6-5 0.6-1 0.04-2-2e-3 -3-0.3-0.2-0.08-0.2-0.8 0.03-0.7 0.8 0.2 1 0.9 2 1 0.4-0.04 0.9 0.1 1-0.1 1-0.6 2-2 3-2 3-2 6-4 10-5 2-0.7 3-1 5-2 1-0.4 2-0.7 3-1 3 0.6-0.9-0.1-3-1-0.7-0.4-0.7-2-1-2-1 0.3-2 2-3 3-4 4-6 4-11 8-3 2-7 4-10 6-1 0.5-2 0.9-3 1-0.2 0.04-0.5-0.4-0.3-0.4 4 2 3 1 5 3 3-3 3-3 6-6 1-1 3-2 4-3 1-0.8 2-2 3-2 0.6-0.3 1-0.7 2-0.5 0.5 0.2-1 0.4-2 0.6-0.9-0.5-2-1-3-1-0.5-0.04-0.7 0.8-0.9 1-0.7 1-1 2-2 3-1 2-3 5-5 7-0.7 0.9-1 2-2 3-0.5 0.5-0.9 1-1 1-0.04 0.03-0.2-0.09-0.1-0.09 2 0.05 4-0.6 6 0.2 1 0.5 1 5 2 3 0.1-0.3 0.2-0.6 0.3-0.9 0.9-3 2-5-5-7-1-0.6-3 1-4 2-0.7 0.5-1 1-2 2-1 2-2 3-4 4-1 1-2 2-3 3-0.3 0.3-1 1-0.9 1 2 0.2 5-2 7-0.5 3 1 0.6 6 2 4-1 3-0.8 2-8 1-0.7-0.1-0.5-1-1-2-0.4-0.1-0.03 0.9-0.05 1-0.05 1-0.1 2-0.2 3 0.9 5 0.09 5 10 3 1-0.1 1-2 2-2 0.6-0.9 1-2 2-3 5-9-2 3 3-5 2-3-1 2-4 1-2-0.4-3-3-4-4-0.6-0.2-0.4 1-0.6 2-0.9 3-0.8 3-2 6-0.5 1-0.9 3-2 4-0.1 0.2-6e-3 -0.5 0.2-0.6 2-0.5 4-1 6-1 0.7 0.05 0.9 1 2 2 0.4 0.1-0.03-0.7-0.05-1-0.2-1 0.03-2-0.1-3-0.3-2-1-6-4-6-5-0.5-6 2-8 5-1 2-2 4-3 6-0.2 0.5-0.5 1-0.4 2 0.09 1-0.4 3 0.8 4 2 1 5 0.7 8 1 0.8-0.7 2-1 2-2 1-1 3-3 4-5 0.6-0.6 1-1 2-2 0.2-0.2 0.9-0.4 0.7-0.4-1 0.3-2 0.7-3 1-1-0.7-2-2-3-2-0.2-0.09-0.2 0.5-0.2 0.7-0.1 0.7-0.1 1-0.2 2-0.2 2-0.6 4-1 6-0.4 4-0.8 4 8 6 1 0.2 1-1 2-2 0.4-0.4 0.6-1 0.9-1 0.9-1 0.4-0.9 1-1-26-5-5 2-9-4-0.3-0.3-0.4 0.8-0.5 1-0.2 0.4-0.4 0.8-0.6 1-0.1 0.2-0.6 0.8-0.4 0.6 0.5-0.5 0.9-1 1-2 2 0.9 5 2 7 3 0.08 0.05 0.2 0.2 0.2 0.1 0.2-0.4 0.1-0.9 0.2-1 0.06-0.3 0.5-2 0.5-3-0.05-1-0.3-2-0.5-3-3-0.3-6-1-9-0.8-0.8 0.08-0.9 1-1 2-0.5 0.7-1 2-2 3-0.7 1-0.5 0.8-1 2-2 1-3 2-3 5-0.03 1 0.7 2 1 3 0.4 0.7 1 1 2 2 3 2 6 4 9 5 2 0.8 4 1 6 2 7 2 14 4 21 6 5 1 9 2 14 3 3 0.5 4 0.5 7 0.7 4 0.3 9 0.5 13 0.5 2-1e-3 3-0.04 4-0.08 2-0.06 5-0.3 7-0.5 0.3-0.04 0.7-0.07 1-0.1 0.3-0.04 0.5-0.08 0.8-0.1 0.07-8e-3 0.3-5e-3 0.2-6e-3 -2-0.02-3 0.2-4-2-0.7-1-0.5-3-0.8-4 0.2-0.5 1-1 0.5-2-0.6-0.3-1 0.5-2 0.8-4 1-7 2-11 3-2 0.3-3 0.4-5 0.7-6 0.6-13 0.8-19 0.6-3-0.07-5-0.2-8-0.4-3-0.1-5-0.3-8-0.5-1-0.1-3-0.2-4-0.4-0.2-0.03-0.7-0.08-0.5-0.09 0.6-0.06 2 0.7 2 0.9 0.9 0.9 1 2 1 3 0.02 0.2-0.03 0.4-0.05 0.7 2 0.1-1 1-0.7 2 0.2 0.2 0.5 0.01 0.7 9e-3 0.6-4e-3 1-0.03 2-0.02 2 0.04 3 0.1 5 0.3 0.9 0.09 2 0.2 3 0.3 0.8 0.09 2 0.2 2 0.3 2 0.2 6 1 6-2 0.2-8-3-8-8-10-5-1-10-3-15-4-1-0.3-3-0.7-4-1-1-0.2-3-2-3-0.8 0.3 2 2 4 4 6-0.3 0.9-2 2-0.8 3 2 0.8 3-0.2 5-0.3 4-0.2 8-0.3 13-0.4 2-0.05 4-0.07 5-0.1 1-0.05 3-0.1 4-0.2 1-0.2 2 0.2 3-0.6 2-2 4-5 3-8-0.6-2-4-3-6-4-2-0.8-4-0.9-6-1-4-0.8-8-1-12-2-2-0.2-7-0.8-9-1-0.6-0.2-1-0.5-2-0.9-0.2-0.2 0.1-0.4 0.3-0.6 0.2-0.3 0.4-0.6 0.5-0.9 0.3-1 0.4-2 0.6-3 1-5 2-9 4-14 0.4-1 0.7-2 1-3 0.2-0.4 1-1 0.6-1-3-0.09-6 0.7-8 1-0.3-0.3-0.7-1-1-1-0.6 0.8-0.3 2-0.5 3-0.4 2-0.8 4-1 7-0.2 0.9-0.3 2-0.5 3-0.09 0.6-0.1 1-0.2 2 2 2 4 5 7 5 2 0.2 4-5 5-7 0.6-2 1-3 2-5 0.1-0.3 0.3-0.5 0.4-0.8-3-0.2-6-0.3-9-0.5-0.2 0.07-0.4 0.05-0.5 0.2-0.4 1-0.5 2-0.8 3-0.9 4-2 7-3 11-0.2 0.8-0.4 2-0.7 2-1 4-2 4 9 4 1-0.03 0.8-2 1-3 2-5 2-4 4-10 0.8-2 2-3 2-5 0.7-1 1-3 2-4 0.5-1 0.9-2 1-3 0.04-0.06 0.3 0.06 0.2 0.06-8-0.5-7-3-8 0.6-0.5 4-1 8-2 12-0.2 1-0.4 2-0.6 3-0.1 0.4-0.8 1-0.4 1 3 0.2 6-0.4 10-0.6 0.1-0.3 0.4-0.6 0.4-1 0.3-2 0.5-3 0.8-5 0.4-2 0.9-4 1-6 1-5 3-11 4-16 0.7-4 2-6-10-3-2 0.5-2 3-2 5-3 6-6 12-9 18-1 2-2 5-4 7-0.08 0.1-0.05-0.5 0.09-0.4 3 0.4 5 1 8 2 0.4 0.02 0.5-0.7 0.6-1 0.4-1 0.8-3 1-4 2-5 2-5 3-10 0.5-1 1-3 2-4 0.3-0.6 2-2 1-2-10-0.5-9-0.8-9 5 4e-3 1 9e-3 9 0.08 10 0.07 1 0.03 3 0.4 4 0.4 1 0.6 3 2 4 7 3 7 1 12-2 9-11-3 4 5-6 0.4-0.5 2-2 1-1-1 0.1-3 2-4 2-6-2-3-7-6-2-0.9 2-2 4-3 6-0.3 0.8-0.7 2-1 2-0.1 0.3-0.8 0.8-0.5 0.8 10 0.7 6-2 10 0.7 1-5 3-10 4-15 0.5-2 0.9-3 1-5 0.3-1 1-2 0.7-3-1-2-3-4-5-6-2 2-4 3-6 5-1 1-2 3-3 5-1 2-4 8-6 10-1 2-3 5-4 7 0.07-0.2-0.03-0.7 0.2-0.7 2 0.07 5 0.5 7 0.9 0.3 0.05 0.5 0.7 0.7 0.5 0.5-0.6 0.5-2 0.9-2 1-3 1-3 4-5 0.8-0.5 2-1 3-1 2-0.7 4-0.9 6-0.5 2 0.3 3 0.8 4 2 0.3 0.5 0.2 1 0.4 2-0.08 0.7-0.06 1-0.2 2-0.6 2-2 4-4 5-2 0.8-1 0.6-3 0.2 0.2-0.2 0.4-0.5 0.7-0.5 1-0.02 1 0.9 2 0.3 0.6-0.3 1-0.9 2-1 3-2 3-2 7-3 8-3 2 0.3 2 0.02-0.5-0.2-2-3-4-3-0.8 0.2-1 0.6-2 1-0.9 0.2-2 0.4-3 0.6-0.5-0.06-3 0.1-3-1-0.02-0.3 0.3-0.5 0.6-0.6 0.3-0.1 0.6-0.02 0.9-0.1 0.5-0.2 3-2 3-2 0.6-0.2 1-0.5 2-0.5 0.9-2e-3 1 0.6 0.5 1-0.2 0.2-0.5 0.08-0.8 0.2-0.2 0.1-0.3 0.4-0.5 0.5-0.2 0.2-0.4 0.4-0.6 0.6-0.2-0.3-1 1-1 0.8-0.1-0.2 0.2-0.5 0.4-0.5 1-0.1 2-0.4 3 0.1 2 1 2 2 2 4 0.8 0.3 2 0.1 2 1 0.3 0.5-0.1 1-0.4 2-0.2 0.4-0.5 0.8-0.8 1-0.5 0.6-1 1-2 2-2 2-5 4-8 5-2 0.6-2 0.8-2-0.07 0.9 0.4 2 0.4 3 1 0.8 1 0.4 3 0.7 4 0.3 1 2 0.7 2 0.8 0.8 0.2 2 0.5 2 0.9 0.8 0.4 2 1 2 2 1 1 2 2 2 4 0.1 0.4 0.05 2-0.04 1-0.2-0.9-0.3-2-0.2-3 0.02-0.4 0.5-0.8 0.4-1-0.09-0.3-0.6-0.4-0.9-0.6-0.3-0.3-0.7-0.6-1-1-0.9-1-2-3-2-4 7e-3 -0.1 0.05-0.2 0.08-0.3 0.02 0.09 0.08 0.2 0.05 0.3-2 4-2 3-10-0.6-0.5-0.2 0.1-1 6e-3 -2-0.02-0.1-0.2 0.08-0.3 0.2-0.3 0.2-0.5 0.5-0.8 0.8-1 0.9-2 2-3 2-0.1 0.08-1 0.9-2 1-0.6 0.7-1 2-2 2 2 2 3 5 5 7 0.7 0.6 2-0.2 3-0.3 1-0.1 2-0.3 3-0.5 3-0.6 6-1 10-2 2-0.6 5-1 7-2 0.8-0.4 2-1 2-2 1-1 2-2 3-3 1-2 3-4 3-6 0.3-1 0.2-1 0.2-3-0.3-2-0.5-4-3-5-2-0.5-4 0.4-6 1-0.8 0.3-1 1-2 2-0.9 1-2 2-2 3-0.3 0.5-0.7 0.9-0.9 1-1 3-2 6 3 9 2 1 4 0.5 6 0.4 3-0.2 9-2 11-3 5-2 10-4 14-6 1-0.7 2-2 3-2 2-2 3-2 4-4 0.4-0.5 2-2 1-1-0.8 0.1-1 1-2 2-2-2-4-5-7-6-0.7-0.3-0.7 1-1 2-0.8 2-1 3-2 5-1 3-4 8 0.3 11 4 3 6 0.4 9-1 2-1 3-3 4-5 0.2-0.2 0.9-0.7 0.6-0.6-6 2-2 3-8-3-0.8 2 0.3-0.9-1 3-0.3 0.7-0.5 1-0.8 2-3 7 7 10 9 4 1-3 2-5 3-8-2-2-2-5-5-6-2-1-5 2-7 4-1 1-1 1-2 2-1 2 1-2 4 1 1 1 0.9 3 1 5 0.03 0.08-0.04-0.2-0.01-0.2 0.2-0.7 1-3 1-3 0.6-2 1-3 2-4 0.3-0.6 1-1 0.8-2-4-8-4-10-8-6-0.2 0.2-0.3 0.4-0.4 0.7-1 1-1 2-3 3-4 4-9 5-14 7-2 0.5-3 1-5 1-1 0.4-3 0.4-4 0.9-0.3 0.1-0.5 0.6-0.4 0.9 0.3 1 1 3 1 4 0.05 0.3-2 3-0.1 0.5 1-2 0.6-0.9 2-2 0.2-0.2 0.9-0.7 0.6-0.7-2-0.3-3 0.5-5-0.1-2-0.9-2-2-2-4 0.1-0.5 0.2-0.1 0.07 0.1-0.2 0.5-0.5 0.8-0.8 1-0.8 0.9-0.7 0.8-2 2-0.2 0.2-0.4 0.4-0.6 0.6-1 0.9-3 1-5 1-3 0.7-6 1-9 2-0.9 0.2-2 0.3-3 0.5-0.3 0.06-1-0.1-1 0.2 0.9 2 2 5 4 7-0.5 0.6-1 1-2 2-0.1 0.2 0.3-0.2 0.5-0.4 1-0.9 3-2 4-3 0.6-0.5 1-1 2-2 1-1 2-3 3-4 0.4-1 2-3 0.7-3-6-5-8-5-10-0.7-0.2 0.6-0.2 1-0.3 2 0.03 2-0.07 3 0.5 4 0.9 3 3 6 6 8 1 0.9 2 1 4 2 3 0.8 7 2 10-0.6 2-1 3-4 3-6 0.5-2-2-7-3-9-1-1-2-2-4-4-4-2-5-3-10-4-6-0.5-14 2-12 10 0.5 2 3 2 4 4 1 0.1 3 0.4 4 0.3 3-0.2 6-2 8-3 3-2 6-4 8-7 1-2 2-4 3-5 0.1-2 0.8-4 0.4-6-0.6-4-3-7-6-8-3-1-6-1-9-0.1-1 0.6-3 2-4 3-0.8 1-2 3-2 4-0.2 5 2 7 7 7 1 0.05 2-0.6 3-1 3-1 3-3 5-5 1-3 2-5 0.9-9-0.6-2-2-3-3-4-3-2-6-3-10-2-2 0.4-3 1-5 2-3 3-6 4-7 9-0.8 4 0.6 8 4 10 1 1 3 2 5 2 2 0.3 3-0.07 5-0.1 4-1 7-2 10-5 1-1 3-3 3-5 0.7-6-2-9-7-9-2-0.1-3 0.6-5 1-4 2-7 2-10 5-2 1-3 3-4 5-2 4-2 8 2 11 1 1 3 1 5 2 2-0.2 3-0.06 5-0.5 2-0.4 3-1 4-2 4-3 8-8 8-14 0.05-2-0.6-4-0.9-6-1-2-2-4-3-5-5-5-15-5-21-2-2 0.9-3 2-5 3-1 1-2 3-3 4-1 2-3 6-4 8-0.2 2-1 4 0.1 5 2 2 5 3 8 3 1 0.05 2-2 3-2 1-2 3-5 4-7 2-3 4-7 6-10 0.8-1 3-3 3-4-0.06-0.9-2-0.2-3-0.3-1-2-2-5-4-6-0.7-0.5-0.4 2-0.7 3-0.4 2-0.9 3-1 5-1 4-2 8-3 11-0.4 2-0.8 3-1 5-7e-3 2-2 5-0.02 6 8 6 9 0.6 11-4 1-2 2-4 3-7 2-4 4-7-2-12-2-2-6 2-7 3-0.7 0.8-1 2-2 3-0.7 0.8-1 2-2 3-2 3-0.8 0.2 3 4 0.3 0.2 0.07 1-5e-3 1-0.2-0.9-0.3-2-0.3-3-0.07-1-0.08-9-0.09-10-0.4-7 1-9-10-10-1-0.09-1 2-2 3-0.6 1-1 3-2 4-2 5-2 5-4 10-0.2 0.8-3 9-2 10 2 2 5 3 8 4 1 0.2 1-1 2-2 1-2 3-6 4-7 3-6 6-12 9-19 0.8-2 3-3 2-5-8-13-8-8-8-4-1 6-3 11-4 17-0.6 3-2 9-2 12-0.2 2-0.07 3-0.1 5 3 0.2 7 0.9 10 0.5 0.7-0.09 0.4-1 0.5-2 0.2-1 0.4-2 0.7-3 0.9-5 2-9 2-14-0.1-7 1-7-9-8-1-0.06-1 1-2 2-0.6 1-1 2-2 3-0.6 1-4 8-4 9-2 5-2 5-4 10-0.4 0.9-2 2-1 3 2 2 6 3 9 4 1 0.4-1-6 1-3 1-4 2-7 3-11 0.3-1 0.7-3 0.9-4 0.2-1 2-4 0.4-4-3-2-6-0.9-10-1-0.2 0.5-0.5 1-0.7 2-0.06 0.2-2 5-2 5-0.2 0.6-1 2-0.7 2 0.8 0.3 2-0.8 2-1 2 2 4 4 6 5 0.2-2 0.06-0.9 0.5-4 0.4-2 0.9-5 1-7 0.2-1 0.6-2 0.6-4 0.02-2-0.3-4-0.5-6-3 0.06-6-0.5-9 0.2-0.8 0.2-0.7 1-1 2-0.5 1-0.8 2-1 4-2 5-3 10-4 16-0.4 4-1 7 0.9 11 2 3 4 4 7 5 1 0.4 3 0.6 4 0.8 2 0.3 3 0.4 5 0.7 4 0.6 7 1 12 2 2 0.3 3 1 5 1 0.5-0.06-0.06-1 0.2-2 1-2 3-4 4-6 0.2-0.4-0.8 0.2-1 0.4-1 0.07-3 0.2-4 0.2-4 0.1-8 0.2-12 0.3-0.3 0.01-12 0.4-12 0.6-3 0.8-5 2-7 4 1 2 2 5 3 7 0.7 0.8 2 0.6 3 0.8 1 0.3 3 0.7 4 1 5 1 10 2 15 4 8 2-0.2 1 3-7 0.6-1 3-0.8 4-2 0.4-0.3-1-0.1-2-0.2-3-0.4-2-0.2-6-0.6-2-0.2-4-0.4-7-0.3-1 0.03-2 0.06-3 0.2-2 0.3-4 1-6 2-0.7 0.7-1 2-2 2-0.4 1-0.9 3-0.4 4 0.3 0.9 0.7 2 1 3 1 1 3 2 5 2 4 0.5 9 0.6 13 0.9 3 0.2 5 0.3 8 0.4 7 0.2 14-3e-3 20-0.7 2-0.3 3-0.5 5-0.8 3-0.6 6-1 10-2 1-0.4 6-2 7-3 1-1 2-2 4-4-0.2-2 0.3-4-0.5-5-1-2-3-2-5-2-0.6-0.02-1 0.2-2 0.2-2 0.2-4 0.4-7 0.5-2 0.04-3 0.08-4 0.08-4 5e-3 -8-0.2-12-0.4-3-0.2-4-0.2-6-0.6-4-0.6-9-2-13-3-7-2-14-4-21-6-4-1-8-3-11-5-1 0.2 0.8-0.2 0.4 2-0.2 1-1 2-1 3-7e-3 0.02-0.06 0.03-0.05 0.02 1-1 0.1 0.02 2-2 0.4-0.4 0.7-0.9 1-1 0.3-0.4 0.6-0.9 0.9-1 0.6-0.9 1-2 2-3 0.1-0.2 0.6-0.6 0.4-0.7-2-0.9-5-1-8-2-0.07-0.8-0.02-2-0.2-2-0.07-0.3-0.09 0.6-0.1 0.9-0.1 0.6-0.3 1-0.4 2-0.1 0.8-0.8 5-0.3 5 2 2 5 3 7 4 0.8-0.7 2-1 2-2 0.4-0.4 0.6-0.9 0.8-1 0.7-1 3-6 2-7-2-2-6-1-9-2-1 2-0.5 0.7-2 2-0.2 0.4-0.8 0.7-0.7 1 0.07 0.3 0.5-0.6 0.8-0.5 7 4 7 8 7 5 0.4-2 0.8-4 1-7 0.1-1 0.3-2 0.3-3 2e-3 -1 0.3-3-0.3-4-1-2-3-3-4-5-2 0.2-3 0.2-5 0.7-0.9 0.3-1 1-2 2-0.6 0.6-1 1-2 2-2 2-3 3-5 5 2 0.7 4 0.8 6 2 0.9 0.8 0.2 2 0.4 3 0.03 0.2 0.06-0.4 0.1-0.6 0.5-2 1-3 2-5 2-3 0.03 0.8-4-0.8-1-0.6-2-2-3-3-0.03-0.03 0.1-2e-3 0.1 0.04 0.05 0.6 0.02 1 0.04 2 0.03 0.7 0.06 1 0.09 2 0.2 2 0.4 6 3 7 8 3 9-2 11-7 0.7-2 2-4 2-6 0.3-1 1-2 0.8-3-0.8-3-2-6-4-7-3-2-5 2-7 4-1 2-3 5-4 7-0.3 0.4-1 1-0.8 1 8 4 8-0.8 8 4 0.06-1 0.1-2 0.2-3 0.02-0.7 0.2-1 0.03-2-0.3-2-8e-3 -4-1-4-6-3-7-2-9 1-0.9 2-3 5 0.5 7 5 3 6 1 8-1 0.9-1 2-2 3-3 1-2 2-2 4-4 0.5-0.5 2-0.8 1-1-0.2-0.6-1 0.7-2 0.3-5-5-4-9-5-6-0.9 3-2 7 0.4 9 3 3 6 2 8-0.4 0.7-0.6 1-1 2-2 0.8-1 2-2 2-3 2-2 4-6 6-8 0.9-2 2-3 3-5 0.7-2 2-4 1-6-0.5-2-2-4-4-6-2-0.2-3-0.8-5-0.7-2 0.2-6 3-8 4-2 1-3 2-4 3-5 4-4 4-9 9-0.6 2-3 4-2 7 2 5 5 6 9 5 1-0.4 3-1 4-2 3-2 8-5 11-6 5-3 8-5 12-9 2-2 3-3 4-5 1-2 2-5 2-7-2-5-6-4-9-4-1 0.5-3 0.8-4 1-3 1-8 4-11 5-3 2-9 5-11 8-1 2-2 4-3 6 0.8 2 1 5 2 6 2 3 7 3 10 3 2-0.1 4-0.4 6-0.9 6-1 8-2 14-4 4-2 9-4 12-8 3-5 4-8-0.5-12-2-2-6-1-9-0.7-2 0.6-3 1-5 2-7 3-16 9-15 19 0.2 2 2 4 2 6 1 1 3 3 4 4 3 2 8 4 12 4 5 0.7 10 0.6 15-0.4 2-0.5 5-2 7-2 2-2 4-2 6-5 3-5 3-9-2-12-2-1-4-2-6-2-3-0.6-9 0.3-12 0.7-4 1-11 2-12 8-0.3 3 2 5 4 7 1 1 3 0.6 5 0.6 5-0.04 7-1 12-2 0.8-0.3 11-4 12-5 0.8-3-0.4-7-2-10-0.7-1-3 0.09-4 0.3-3 0.5-7 2-10 3-3 1-8 3-11 5-2 1-4 2-4 4-2 6 0.4 9 5 10 1 0.3 3-0.04 4-0.06 2-0.3 3-0.6 5-1 3-0.7 9-3 11-4 2-0.8 4-2 6-3 2-1 4-2 5-5 0.7-2-0.8-5-1-8-1-0.7-2-2-4-2-2-0.7-7-0.7-9-0.8-6-0.1-11-0.06-17-0.2-3 1-2 0.3-2 8 6e-3 0.3 0.4-0.4 0.6-0.6 0.9-0.6 2-1 3-2 4-2 3-2 7-4 0.5-0.3 7-4 7-5-0.2-3-2-6-4-8-0.5-0.6-2 0.2-2 0.4-1 0.4-4 2-5 2-3 1-5 2-7 4-2 1-6 3-7 5-1 0.9-3 2-3 3 0.5 3 3 5 5 8 0.8-0.2 2-0.3 2-0.6 1-0.5 3-2 4-3 0.8-0.6 2-1 2-2 1-1 3-2 3-4-0.5-3-3-5-5-7-0.9 0.09-2 0.08-3 0.3-2 0.4-5 2-7 2-1 0.5-3 1-4 1-1 0.4-2 0.6-3 1-0.2 0.1 0.2 0.5 0.3 0.8 0.7 2 1 5 2 7 0.08 0.2 0.1-0.4 0.2-0.6 0.6-0.8 1-2 2-2 1-1 4-5 4-6 0.7-1 1-3 2-4-1-2-2-5-4-7-1-0.8-3 0.09-4 0.4-0.9 0.2-2 0.8-2 1-0.8 0.5-2 1-2 2-2 2-3 2-5 4-0.8 0.7-2 1-2 2-0.3 0.3-1 0.6-0.8 0.8 8 8 6 9 9 5 1-2 3-5 4-7 1-2 3-4 5-6 1-1 2-3 3-4 0.5-0.5 0.6-0.7 1-1 0.8-0.7 2-1 3-2 0.5-0.2 1-0.6 2-0.8 1-0.5 2-0.8 4-1 2-0.3 3-0.5 5-0.5 2 0.03 3 0.08 5 0.3 2 0.3 4 0.7 5 1 3 0.7 6 1 8 2 3 0.6 5 1 8 2 3 0.8 6 2 8 2 3 0.8 5 2 8 3 2 1 5 2 7 3 0.4 0.3 1 0.7 2 1 0.9 0.7 2 1 2 2 0.8 1 1 3 2 4 0.5 2 0.8 4 1 6 0.2 2 0.3 4 0.3 6 5e-4 2-0.09 4-0.4 6-0.3 2-0.6 4-1 6-0.4 2-1 4-1 6-0.7 3-1 6-2 9-0.7 2-1 5-2 7-0.9 2-2 5-3 7-0.8 2-2 4-2 6-0.4 0.9-0.9 2-2 3-0.5 0.6-0.9 1-2 2-0.4 0.3-0.8 0.7-1 1-0.7 0.4-2 0.5-2 0.7-2 0.3-3 0.5-5 0.7-2 0.2-4 0.5-6 0.7-3 0.3-5 0.6-8 0.9-2 0.3-5 0.5-8 0.5-2-0.02-4-0.04-6-0.2-2-0.1-3-0.3-5-0.7-1-0.3-3-0.5-4-0.9-2-0.4-3-0.8-5-1-2-0.4-3-0.9-5-1-2-0.5-4-1-5-2-2-0.7-3-1-5-2-0.05-0.03-0.9-0.6-1-0.7-0.7-0.5-1-1-2-2-1-1-3-3-4-4-1-2-3-3-4-4-1-1-2-3-4-4-0.8-1-1-2-2-4-0.6-1-1-2-2-3-0.7-1-1-2-2-3-0.4-0.5 0.08 0.1-0.4-0.6-0.05-0.07-0.09-0.08-0.1-0.2-0.07-0.1-0.1-0.3-0.1-0.4-0.1-0.3-0.05-0.7-0.04-1 0.02-0.5 0.05-1 0.1-2 0.3-2 0.9-4 2-6 0.7-2 1-5 2-7 0.8-3 2-5 3-8 0.4-1 0.4-1 0.8-2 0.09-0.2 0.2-0.4 0.3-0.6 0.04-0.1 0.2-0.2 0.1-0.3-3-1-6-3-9-4-0.05-0.02 0.04-0.1 0.06-0.1-1 3-2 5-3 8-0.3 1-0.9 3-0.9 4-0.03 0.9-0.5 2 0.2 3 5 4 6 5 9 2 0.3-0.3 0.5-0.6 0.7-0.9 0.8-1 2-3 2-4 1-2 2-3 3-5 0.8-2 2-3 2-5 0.7-1 1-3 2-4 0.5-1 1-2 2-3 0.6-1 1-2 2-3 0.5-0.7 1-1 2-2 0.4-0.5 1-0.6 2-0.8 2-0.5 3-0.8 5-1 2-0.4 4-0.8 7-0.9 0.2 3e-3 0.4-8e-3 0.6 9e-3 2 0.2 4 1 6 2 2 0.7 5 2 7 2 3 1 6 2 10 3 3 0.7 4 0.9 7 1 6 1 11 2 17 2 3 0.1 5 0.2 8 0.2 1-0.02 2-0.05 3-0.1 3-0.2 7-0.4 8-5 0.6-2-1-3-2-5-0.4-0.3-0.9-0.6-1-0.9-0.3-0.2-0.6-0.3-0.9-0.4-1-0.5-2-1-4-1-2-0.6-4-1-6-2-3-0.8-6-2-9-2-2-0.3-4-0.6-6-0.8-6-0.5-13-0.9-19-1-4-0.3-8-0.5-13-0.8-0.9-0.06-4-0.3-5-0.3-0.3-0.02-0.6-0.02-0.9-0.02-7-0.4-8 10-0.5 10z" fill="#f60"/><path d="m95 67c-0.3 0.4-0.7 0.8-1 1-2 3-4 6-6 9-2 3-3 6-5 9-3 5-2 4-5 9-0.6 1-1 2-2 3-0.4 0.6-0.8 1-1 2-0.2 0.4 0.4-1 0.8-1 3 0.5 5 2 8 3 0.5-2 1-5 2-6 1-4 3-7 5-11 0.8-2 2-4 2-5 0.7-1 1-3 2-4 0.4-0.6 2-1 1-2-3-1-6-1-9-2-0.4-0.03-0.6 0.5-0.7 0.9-0.5 1-0.9 2-1 3-2 3-1 2-3 5 2-3-1 0.7 6-0.8 0.5-0.1 0.2-1 0.3-2 0.1-2 0.1-3 0.3-5 0.4-4 0.9-7 2-11 0.2-1 0.5-3 0.7-4 0.5-3 2-7-4-8-4-0.7-7 4-9 7-0.7 1-1 2-2 3-0.7 0.9-1 2-2 3-0.1 0.1-0.4-0.3-0.3-0.4 0.9-0.4 2-0.6 3-0.9 0.4-0.09 1 0.3 1-0.07 0.3-0.7-0.2-2-0.3-2-0.1-1-0.2-2-0.3-3-0.2-3 0.2-7-0.8-10-0.2-0.6-0.6-1-0.9-2 0.03 0.06 0.2 0.4 0.3 0.5 0.04 0.04 0.09 0.07 0.1 0.1 0.1 0.2 0.2 0.4 0.4 0.4 0.4-0.02 0.8-0.2 1-0.2 3-0.6 6-0.9 8-1 0.8-0.06 2-0.04 2-0.2 0.8-0.1 2 0.05 2-0.5 2-2 3-4 4-6-1-2-2-4-4-5-0.8-0.8-7-3-8-4-2-0.7-6-2-8-3-1-0.3-2-0.6-3-0.9-2-0.5-3-0.9-6-0.6-2 0.3-3 1-5 2-1 1-1 2-2 3-0.3 2-1 4 0.8 6 0.9 1 2 2 4 2 0.9 0.3 2 0.1 3 0.09 0.9-0.04 5-0.6 6-0.8 1-0.2 4-0.6 5-0.6 0.2-5e-3 0.9 0.2 0.7 0.1-0.6-0.2-2 0.09-2-0.5-2-4-2-4-2-6-2 1-5 3-3 7 2 4 5 3 8 2 0.6-0.05 1-0.06 2-0.09 0.5 0.1 1 0.1 2 0.3 3 1 6 4 8 7 0.7 1 1 3 2 4 0.4 2 1 3 1 5 0.7 4 0.6 8 0.2 12-0.4 4-1 8-2 11-0.4 1-0.8 3-1 4-0.3 1-0.7 2-1 3-0.1 0.1-0.5 0.3-0.3 0.3 3 0.08 6 1 9-0.05 1-0.5 0.3-3 0.5-4 1-6 1-7 3-14 0.6-2 1-5 2-7 1-4 1-5 3-9 0.1-0.3 0.05 0.9-0.3 0.9-10-0.08-8-4-9 3-1 8-4 15-6 22-0.7 2-3 8-4 11-0.3 0.6-0.7 1-1 2 0.4-8 6 0.05 7-2 0.9-1-0.1-3-0.1-4 0.01-2 0.06-4 0.2-6 0.3-5 0.8-9 1-14-0.4-4 2-7 1-10-0.06-1 0.3-4-1-4-4-0.2-7 1-10 3-0.3 0.2-4 10-4 11-3 9-0.4 1-3 8-0.2 0.6-1 2-0.6 2 3 1 7 2 10 2 1-0.2 0.8-2 1-3 0.5-1 1-2 1-4 2-4 1-2 3-6 2-4 3-6-10-3-2 0.5-2 3-2 5-1 2-2 4-3 6-2 4-3 7-5 11-0.6 1-1 2-2 3-0.2 0.4-1 1-0.8 1 10 1 6-3 10 1 2-4 1-4 3-8 0.6-1 1-3 2-4 0.5-1 2-2 2-3-0.1-0.9-0.8 2-2 2-2 0.2-4-1-6-2-0.02 4 6e-3 -0.5-0.04 5-0.03 3-0.7 7 6 8 4 0.4 7-6 9-8 2-3 3-6 5-9 0.5-0.8 3-2 2-2-2-0.2-4 1-6 2-0.7 0.1-2-1-2-0.5-0.9 1-0.5 3-0.8 5-1 6-3 11-4 17-0.4 1-0.7 3-1 4-0.2 0.8-1 2-0.6 3 3 2 6 3 9 4 0.9-1 2-3 3-4 1-2 2-4 3-6 2-4 5-9 8-13 1-2 2-4 3-6 0.8-1 2-3 3-4 0.4-0.4 2-1 1-1-2-0.2-4 1-7 0.8-0.8-0.04-1-2-2-1-1 1-1 3-1 4-2 5-3 7-5 12-0.8 2-2 4-2 6-0.7 2-1 3-2 5-0.4 1-0.9 2-1 3-0.04 0.06-0.3-0.1-0.2-0.1 9 0.6 7 3 9-0.7 0.3-2 0.7-3 1-5 1-5 2-9 4-14 2-6 4-13 5-19 0.3-1 0.7-2 1-3 0.1-0.2 0.6-0.7 0.3-0.7-3-0.6-7-2-10-1-1 0.2-0.4 2-0.6 3-1 5-1 6-3 12-3 13-7 26-11 39-1 3-0.7 2-2 5-0.2 0.5-0.5 2-0.7 2-0.07 0.4-0.4 0.8-0.2 1 1 2 3 4 5 5 2-1 4-2 6-4 0.7-0.6 1-2 1-2 0.6-0.9 1-2 2-3 0.8-1 2-2 2-3 2-3 3-4 5-6 0.7-0.7 1-1 2-2 0.2-0.04 0.9-0.2 0.7-0.1-1 0.3-2 0.7-4 0.9-0.5 0.06-1-0.7-2-0.2-0.4 0.8 0.1 2 0.1 3 1e-3 1-0.07 3-0.1 4-0.3 4-0.3 4-0.7 7-0.1 1-0.4 3-0.7 4-0.01 0.04-0.1-0.06-0.09-0.07 3-0.6 5-1 8-2 0.4 0.5 0.6 1 1 2 0.4 0.09 0.02-0.9 0.03-1 0.02-0.7 0.08-3 0.08-4-3e-3 -0.6 7e-3 -1-0.05-2-0.06-0.6-0.2-1-0.3-2-2-3-2-4-6-5-1-0.1-2 0.3-3 0.5-0.7 0.2-1 0.5-2 0.7-2 0.7-1 0.4-3 0.9-0.3 0.08-0.6 0.2-1 0.2-0.04 6e-3 0.03-0.1 0.07-0.1 0.7 0.05 1 0.02 2 0.2 0.6 0.2 1 1 2 1 0.5-0.3-0.3-1-0.4-2-0.2-0.9-0.4-2-0.7-3-1-4-2-8-3-12-1-2-1-2-2-4-1-1-2-2-3-3-2-2-5-3-8-3-2-0.7-4-1-6-1-0.3-0.02 0.6-0.03 0.8 0.08 0.6 0.3 1 0.7 2 1 0.1-0.2 0.4-0.3 0.4-0.5 0.1-1-0.07-3-0.09-4-0.02-2-8e-3 -4 2e-3 -5 0.03-5 0.2-10 0.3-15 0.06-1 0.1-2 0.2-3 0.09-0.2 0.5-0.9 0.3-0.7-2 1-2 3-4 4-1 0.4-2-1-4-1-0.4-0.03 0.2 0.7 0.3 1 0.1 0.6 0.3 1 0.4 2 0.1 0.6 0.3 1 0.4 2 0.1 0.5 0.2 1 0.3 2 0.6 3 1 5 5 5 3 0.4 5-3 7-5 0.4-0.7 0.8-1 1-2 0.3-0.6 0.7-1 1-2 0.2-0.3 0.8-0.9 0.6-0.7-0.3 0.4-0.6 0.9-1 1-0.4 0.3-1 0.2-1 0.6-0.2 0.2 0.3 0.4 0.5 0.6 2 1 3 3 4 5 0.4 0.5 0.7 1 1 2 0.4 0.5 0.7 1 1 2 0.7 0.7 2 1 2 2 2 0.1 3 0.6 5 0.3 2-0.3 4-2 5-3 2-1 2-2 4-3 0.6-0.4 1-0.8 2-1 0.9-0.6 2-1 3-2 0.3-0.2 0.5-0.3 0.8-0.4 0.09-0.04 0.2-0.1 0.3-0.07 0.06 0.02-0.08 0.1-0.1 0.1 0.08 0.02 0.2 0.05 0.2 0.07 3 0.4 6 0.6 9 0.8 0.4 0.02 0.9 0.03 1 0.05 0.3 0.01 0.6 0.01 0.9 0.05 0.02 2e-3 -0.03 0.06-0.05 0.04-1-1-3-3-4-4-1-3 3-4 0.6-3-0.6 0.2-1 0.5-2 0.7-1 0.5-4 1-5 2-3 0.9-5 2-8 3-3 1-6 2-4 8 0.8 2 4 2 6 2 1 0.2 2-0.2 3-0.3 3-0.3 4-0.6 7-1 2-0.4 5-0.9 7-1 0.5-0.09 0.9-0.2 1-0.2 0.05-6e-3 0.2 0.07 0.1 0.06-0.8-0.2-2-0.3-2-0.5-0.8-2-1-4-2-5-0.1-0.2-0.4 0.3-0.6 0.5-0.5 0.5-1 1-2 2-2 1-3 3-5 4-0.8 0.6-2 1-3 2-2 1-5 3-7 4-0.6 0.2-1 0.5-2 0.7-1 0.5-0.8 0.4-1 0.5 1 3 3 6 4 9 0.1 0.2 0.5-0.2 0.8-0.3 2-0.8 2-0.9 4-2 1-0.4 3-1 4-2 2-0.7 4-1 6-2 0.8-0.2-0.1 0.03-0.1 0.03-0.9-0.1-2-0.1-3-0.4-0.6-0.3-1-0.9-2-1-0.1-0.1-0.2-0.5-0.3-0.4-0.2 0.2-0.01 0.5-0.02 0.7-0.2 4-0.6 8-1 12-0.2 0.8-0.3 2-0.5 2-0.3 1-0.7 3-1 4-0.3 0.9-0.6 2-1 2-0.5 0.7-0.8 0.9-1 2-1 0.8-2 2-3 2-0.2 0.1-0.8 0.3-0.6 0.2 1-0.6 0.9-0.5 2-0.5 0.06-0.1 0.2-0.2 0.2-0.3-0.03-0.4-0.2-0.7-0.3-1-0.08-0.6-0.2-1-0.2-2-0.09-2 0.05-3 0.5-5 0.2-1 0.6-2 0.9-3 1-3 3-5 4-7 0.4-0.6 0.8-1 1-2 0.2-0.3 1-0.9 0.8-0.7-0.9 0.4-2 1-2 1-2-1-3-3-5-3-0.5-0.1-0.3 1-0.5 1-0.5 1-0.9 3-1 4-2 5-4 9-6 14-0.4 0.9-0.9 2-1 3-2 4-4 4 9 5 1 0.1 1-2 2-3 2-3 3-4 5-7 1-2 2-3 3-4 0.1-0.2 0.3-0.3 0.5-0.4 0.1-0.07-0.2 0.3-0.3 0.3-0.6 0.3-1 0.4-2 0.7-0.3 0.2 0.7-0.2 1-0.2 1-0.8 2-2 3-2 0.2-0.2 2-3 2-4 0.8-2 2-4 2-6 1-2 2-4 3-6 0.8-1-0.06 0.4-0.9 0.6-1 0.3-2 0.4-4 0.3-2-0.3-2-2-2-0.9-0.06-0.5 0.6 2 0.5 1-0.07-0.4-0.5-0.7-0.3-1 1-2 3-3 3-5 0.2-0.4-0.9-0.3-1-0.4-0.9-0.2-2-0.5-3-0.7-4-1-8-2-11-3-2-0.4-4-0.3-5 0.7-1 0.8-2 2-3 3-0.4 0.8-0.2 0.4-0.5 1-2 7 7 10 9 3-0.09 0.2-0.09 0.2-0.03 0.03 0.04-0.08 0.2-0.3 0.1-0.2-0.1 0.06-0.2 0.2-0.3 0.3-0.9 0.7-1 1-2 1-0.8 0.1-0.8 0.2-0.9-0.09 4 0.9 7 2 11 3 0.7 0.2 6 2 7 1 2-1 5-3 6-5 0.5-0.6-0.1-2-0.3-2-0.1-0.5-0.8-2-1-2-0.9-2-2-3-4-4-3-1-4-0.3-6 1-0.4 0.3-1 1-1 2-2 2-3 5-4 8-0.8 2-2 4-2 6-0.2 0.5-0.5 1-0.7 2-0.1 0.2-0.5 0.8-0.3 0.7 0.9-0.4 2-1 3-2 2-0.3-0.3 0.03-2 0.7-0.5 0.2-0.9 0.6-1 0.9-1 0.9-2 2-3 3-0.7 1-1 2-2 3-2 3-3 4-5 7-0.6 0.9-2 2-2 3 7 9 7 8 9 4 0.5-1 0.9-2 1-3 2-5 4-10 6-14 0.2-0.6 3-8 2-10-1-2-4-4-5-6-1 0.5-3 0.8-4 2-0.7 0.4-3 3-3 4-2 3-4 7-6 10-0.4 1-0.9 3-1 4-0.8 4-0.9 8 0.4 12 0.4 1 0.9 2 2 3 0.7 1 2 2 2 3 1 0.5 2 1 3 2 3 0.5 5-0.5 7-2 0.6-0.4 1-0.8 2-1 0.7-0.5 1-1 2-2 2-2 2-2 3-4 2-3 2-6 3-9 0.2-1 0.4-2 0.6-3 0.3-2 0.6-4 0.9-6 0.2-2 0.5-4 0.5-6 0.04-0.9 0.03-2 0.05-3-0.2-2-0.2-3-1-5-0.6-0.9-1-2-2-2-2-1-3-1-5-0.5-2 0.7-5 1-7 2-2 0.8-5 2-7 3-0.8 0.3-2 0.6-2 1-0.7 0.3-2 0.2-2 1 0.5 3 2 6 4 9 0.4-0.1 0.8-0.2 1-0.4 0.8-0.3 3-1 3-1 3-1 6-3 8-4 1-0.7 2-1 3-2 2-1 4-3 6-5 0.8-0.8 2-2 2-2 0.7-0.8 2-2 2-3 0.09-2-1-5-1-7-1-0.4-2-0.9-3-1-0.7-0.1-2 0.2-3 0.4-2 0.4-5 0.9-7 1-3 0.4-4 0.6-6 1-0.8 0.1-3-0.6-3 0.3 0.02 1 3 1 3 2 0.2 7-5 9-1 7 3-1 5-2 8-3 1-0.4 4-2 6-2 0.8-0.3 2-0.7 2-1 2-1 5-3 5-6-0.9-5-4-5-8-5-1-0.07-3-0.1-4-0.3-2-0.2-0.7-0.1-3-0.4-0.6-0.06-1-0.1-2-0.2-2 0.04-2-0.06-4 0.5-0.5 0.1-1 0.4-1 0.6-2 0.7-3 2-4 3-2 1-4 3-6 5-0.5 0.4-1 0.7-1 1-0.08 0.09 0.2 0.2 0.2 0.2 0.7 0.3 1 0.5 2 0.8 0.2 0.2 0.7 0.9 0.5 0.7-0.5-0.5-2-3-2-3-1-2-2-3-4-5-0.8-0.8-2-2-2-2-3-2-4-3-8-3-3 0.6-4 3-6 5-0.3 0.6-0.7 1-1 2-0.3 0.4-1 1-0.8 1 1 0.2 2-1 3-0.7 2 0.7 2 3 4 4 0.3 0.2-0.2-0.7-0.3-1-0.1-0.6-0.2-1-0.4-2-0.2-0.7-0.3-1-0.5-2-0.8-3-2-9-7-9-6-0.04-6 6-6 10-0.1 5-0.3 10-0.3 16-7e-3 1-0.06 9 0.2 11 0.2 2 0.8 3 1 5 0.9 0.9 2 2 3 3 1 0.8 2 0.7 4 0.9 1 0.2 1 0.3 2 0.6 2 0.5 1 0.5 3 1 0.4 0.2 0.8 0.3 1 0.5 0.2 0.09 0.4 0.2 0.7 0.3 0.6 0.3 0.7 0.5 1 1 0.2 0.3 0.5 0.6 0.7 1 0.7 1 1 2 2 3 1 3 2 5 2 8 0.2 1 0.4 2 0.7 3 0.7 3 1 5 4 7 1 1 4 1 5 0.8 0.5-0.08 0.9-0.2 1-0.4 0.5-0.2 1-0.3 2-0.5 0.6-0.2 1-0.4 2-0.6 0.4-0.1 0.8-0.2 1-0.5 0.07-0.04-0.02-0.2-0.09-0.2-3-2-2-0.4-3-3 0.04 0.05 0.1 0.09 0.1 0.1 0.08 0.7 0.03 2 0.02 3-0.01 0.7-0.1 4 2e-3 5 0.4 1 1 3 2 4 3-0.4 6-0.3 8-1 0.6-0.2 0.5-1 0.7-2 0.4-1 0.7-4 0.9-5 0.5-4 0.4-4 0.8-8 0.03-2 0.3-8-0.5-10-0.7-2-1-4-3-6-4-2-7-0.9-9 1-0.9 0.8-2 2-2 3-2 3-3 4-5 7-1 2-3 5-4 7-0.4 0.7-2 2-1 2 1 0.6 3-0.6 4-0.9 1 2 3 4 4 5 0.08 0.1-0.1 0.5-0.09 0.4 0.2-0.8 0.3-1 0.5-2 0.8-3 0.5-2 2-5 4-13 7-26 11-39 0.9-4 2-9 3-12 0.3-1 2-3 0.8-4-8-6-9-6-10-2-0.4 1-0.7 2-1 3-2 6-4 13-5 20-1 5-3 10-4 15-0.4 2-0.8 4-1 6-0.2 7-2 8 9 9 1 0.06 1-1 2-2 0.9-1 3-7 4-8 0.8-2 2-4 2-6 2-4 4-8 5-13 1-3 4-11 1-13-2-2-5-0.9-8-0.4-1 0.2-1 2-2 3-0.9 1-2 3-3 4-1 2-6 11-7 12-1 3-6 9-7 12-0.5 0.8-0.9 2-1 3 3 2 5 4 8 5 0.8 0.3 0.4-2 0.6-2 0.3-1 0.7-3 1-4 2-6 3-12 4-18 0.4-3 2-11-1-14-6-4-8 0.2-10 3-2 3-3 5-5 8-4 7-2 1 0.3 4 2 1 2 4 4 5 0.7 0.5 0.01-2 0.02-3 0.03-5 0.1-2-0.3-7-2-2-4-5-7-5-2-0.3-3 2-4 3-0.8 1-1 2-2 4-0.7 1-1 3-2 4-2 5-2 4-4 9-0.3 7-2 9 9 7 0.8-0.1 0.9-1 1-2 1-2 3-7 4-9 0.9-2 2-4 3-6 1-2 2-4 3-6 0.8-2 3-3 2-5-6-12-7-9-9-5-0.4 0.9-0.8 2-1 3-0.5 1-1 2-1 4-0.5 1-1 2-2 4-0.4 1-2 2-1 3 2 3 6 4 9 5 0.6 0.2 0.4-1 0.7-2 2-7-0.4 0.9 3-8 0.6-2 1-3 2-5 0.6-1 3-3 2-4-2-2-5-1-8-3-0.7-0.4 0.07-3-0.2-2-1 3 0.3 7-1 11-0.6 5-1 10-1 15-0.1 2-0.2 5-0.2 7 0.1 4 0.02 11 5 13 2 0.8 4-1 6-2 0.6-1 1-2 2-3 1-3 3-9 4-12 3-8 5-16 7-24 0.9-7 3-8-8-11-1-0.3-1 2-2 3-1 2-3 8-3 10-0.6 2-1 5-2 7-1 5-2 10-3 15-0.3 2-2 5-0.5 6 2 3 6 4 9 4 2 0.4 0.9-7 3-6 0.5-2 1-3 1-5 1-4 2-9 3-13 0.5-5 0.4-10-0.6-15-0.4-2-1-4-2-6-0.9-2-2-4-3-6-3-4-6-8-11-10-3-1-4-1-7-2-0.8 0.05-2 0.07-2 0.1-4 0.4 1-0.1 2 3 1 4-4 8-1 6 0.5-0.4 1-0.7 2-1 3-3 4-3 1-9-0.5-1-2-1-3-1-0.7-0.2-2-0.1-2-0.1-2 0.04-4 0.4-5 0.6-1 0.1-2 0.3-3 0.4-0.7 0.1-1 0.1-2 0.3-0.06 0.01-0.04 0.2 0.01 0.2 0.7 0.7 2 1 2 2 1 2 0.6 2 0.2 4-0.3 0.5-0.6 0.9-1 0.9-0.1-1e-4 -0.4 0.02-0.4-0.1-0.3-0.6 5-8e-3 2 0.1 0.8 0.3 2 0.5 3 0.8 1 0.4 2 0.8 3 1 2 0.9 5 2 7 3 0.9 0.4 2 2 3 1 0.8-0.6-0.3-2-0.4-3 1-1 3-3 4-4 0.1-0.2-0.4 0.2-0.6 0.2-0.9 0.1-2 0.1-3 0.2-2 0.2-5 0.5-7 0.8-1 0.3-3 0.6-4 1-1 0.6-3 1-4 2-3 2-4 4-4 7-0.09 2 0.2 2 0.7 4 0.09 0.2 0.1 0.4 0.3 0.6 0.08 0.08-0.1-0.3-0.06-0.3 0.08-0.06 0.1 0.2 0.1 0.3 0.5 3 0.04 5 0.4 8 0.2 2 0.5 7 1 9 0.9 2 2 4 3 5 4 2 7 0.9 10-2 0.9-0.8 1-2 2-3 0.8-1 2-2 2-3 0.7-0.9 3-2 2-3-0.6-1-3 0.7-4-0.03-2-1-2-4-3-6-2-2 2 12-1 7-0.6 4-1 8-2 12-0.2 2-0.4 4-0.2 6 0.1 2-0.2 4 1 6 2 2 5 3 7 4 1 0.2 2-2 4-2 2-3 2-2 4-6 0.6-1 1-2 2-4 0.5-2 2-4 1-5-2-2-6-3-9-3-1-0.07-1 2-2 3-0.7 1-1 3-2 4-2 3-4 8-5 12-1 3-3 8-4 11-0.4 1-0.5 3-0.8 4 3 2 5 4 8 5 1 0.3 2-1 2-2 0.6-0.7 1-1 1-2 0.6-1 1-2 2-3 3-5 2-3 5-9 2-3 3-6 5-9 2-3 3-5 5-8 0.2-0.3 0.4-0.6 0.7-0.9 5-5-3-12-7-7z" fill="#f60"/><path d="m83 130c-0.9-2-2-4-3-6-0.8-2-2-4-2-5-0.3-0.7-0.7-1-1-2-0.02-0.04 0.09 0.2 0.08 0.1-0.03-0.09-0.08-0.2-0.1-0.3-0.1-0.3-0.3-0.6-0.4-1-0.04-0.1-0.05-0.3-0.08-0.4-0.1-0.7-0.3-1-0.5-2-0.3-1-0.6-3-1-4-0.2-1-0.4-2-0.6-3-0.2-1-0.3-2-0.4-4-0.1-2-0.4-4-0.7-6-0.3-2-0.6-4-0.8-6-0.3-2-0.6-4-1-6-0.3-2-0.6-4-0.8-6-0.2-3-0.3-5-0.4-8-0.08-2-0.04-4 0.3-6 0.08-0.4 0.2-0.9 0.3-1 0.5-2 1-4 2-6 0.2-0.3 0.4-0.6 0.5-0.9 1-2 2-3 4-4 0.3-0.2 0.5-0.3 0.8-0.5 1-0.8 3-1 5-2 0.4-0.07 0.7-0.1 1-0.2 3-0.4 7-0.4 10-0.3 2 0.1 4 0.2 5 0.6 0.7 0.2 1 0.5 2 0.7 2 0.7 4 2 5 3 0.3 0.2 0.5 0.4 0.8 0.6 0.7 0.6 1 1 2 2 0.5 0.6 0.8 1 1 2 0.5 1 0.8 2 0.8 3-0.08 2-0.6 4-1 6-0.4 1-1 2-2 3-1 0.5-2 0.9-3 1-2 0.3-3 0.6-5 0.9-2 0.3-4 0.9-5 2-2 0.8-3 2-4 3-1 1-2 2-3 4-0.5 0.9-0.9 2-1 3-0.05 0.3-0.07 0.7-0.1 1 0.04 1 0.2 2 0.8 3 0.09 0.2 0.6 0.9 0.4 0.6-0.3-0.5-0.3-0.4-0.4-0.9-0.03-0.09-0.05-0.2-0.08-0.3-2e-3 -7e-3 -0.01-0.03-0.01-0.02-5e-3 0.1 0.01 0.3 0.02 0.4 0.02 0.5 0.01 1 0.01 2-2e-3 0.6-2e-3 1-3e-3 2-0.01 0.9-6e-3 2 0.07 3 0.06 0.5 0.08 1 0.1 2 0.03 1 0.2 2 0.5 3 0.2 0.5 0.4 1 0.5 2 0.1 0.8 0.2 2 0.3 3 0.2 3 0.3 5 0.5 8 0.2 2 0.5 5 0.8 7 0.2 2 0.4 4 0.5 6 0.1 2 0.3 4 0.5 6 0.06 0.8 0.2 2 0.3 2 0.9 7 11 6 10-1-0.09-0.7-0.2-1-0.2-2-0.2-2-0.4-4-0.5-6-0.2-2-0.3-4-0.5-6-0.3-2-0.6-5-0.8-7-0.2-3-0.4-5-0.5-8-0.1-1-0.2-3-0.6-4-0.2-0.7-0.4-1-0.7-2-0.1-0.5-0.06-0.2-0.01 0.05 0.01 0.08 0.04 0.3 0.03 0.2-0.01-0.08-0.02-0.2-0.03-0.2-0.02-0.2-7e-3 -0.1-0.03-0.2-0.02-0.7-0.05-1-0.1-2-0.06-0.6-0.01-1-0.03-2 5e-4 -0.6 1e-3 -1 3e-3 -2 1e-3 -0.7 4e-3 -1-0.02-2-0.07-1-0.2-3-1-4-0.07-0.1-0.1-0.2-0.2-0.3-0.03-0.05 0.07 0.1 0.09 0.2 0.4 0.9 0.5 1 0.5 2-0.05 0.4-0.04 0.5-0.1 0.8-0.05 0.1-0.08 0.2-0.08 0.2-0.04-0.08 0.3-0.2 0.1-0.2 0.1-0.2 0.3-0.5 0.4-0.7 4e-3 -8e-3 -0.03-3e-3 -0.02-0.01 0.02-0.03 0.3-0.4 0.4-0.4 0.4-0.4 0.3-0.3 0.7-0.6 0.2-0.2 0.4-0.3 0.6-0.5 8e-3 -9e-3 -0.03-0.02-0.02-0.03 0.05-0.05 0.1-0.07 0.2-0.1 0.9-0.4 2-0.7 3-0.9 2-0.4 4-0.6 5-1 2-0.7 5-2 7-3 1-0.9 1-1 2-2 1-2 2-4 3-6 0.9-3 2-6 2-9-0.03-0.5-0.05-0.9-0.09-1-0.2-2-0.9-4-2-6-0.6-1-0.8-2-2-3-1-2-3-3-5-5-0.4-0.3-0.9-0.6-1-0.9-2-2-5-3-7-4-2-0.5-2-0.7-4-1-2-0.5-5-0.7-7-0.8-4-0.1-8-0.1-12 0.5-0.6 0.1-1 0.2-2 0.3-3 0.6-5 2-8 3-0.5 0.3-1 0.6-1 1-2 2-5 4-6 7-0.3 0.6-0.7 1-0.9 2-1 3-2 6-3 9-0.1 0.7-0.3 1-0.4 2-0.4 3-0.5 5-0.4 8 0.1 3 0.3 5 0.5 8 0.2 2 0.5 5 0.8 7 0.3 2 0.7 4 0.9 6 0.3 2 0.5 4 0.8 6 0.3 2 0.5 4 0.6 6 0.1 1 0.3 3 0.5 4 0.2 1 0.4 3 0.8 4 0.3 1 0.6 2 0.9 4 0.4 2 0.8 4 2 5 0.3 0.7 0.6 1 1 2 0.8 2 2 4 2 6 1 2 2 4 3 6 3 6 12 1 9-5z" fill="#f9f9f9"/><path d="m87 114c3-2 7-4 11-6 6-3 11-5 17-7 0.6-0.2 1-0.4 2-0.6 0.4-0.1 0.8-0.3 1-0.4 0.04-0.01 0.01 0.1-0.03 0.1-0.5 0.04-1 0.2-1 0.02-3-1-2-3-2-0.9 0.2 3 0.1 5-0.09 8-0.1 1-0.2 2-0.3 3-0.01 0.7-0.08 1-0.1 2-0.05 0.8-0.1 2-0.2 2-0.02 0.2-0.03 0.3-0.06 0.5-4e-3 0.02-5e-3 -0.05-1e-3 -0.07 0.03-0.1 0.04-0.3 0.09-0.4 0.1-0.4 0.2-0.8 0.5-1 0.7-0.7 2-1 2-2 0.3-0.07 0.6-0.02 0.8-0.2 0.1-0.1-0.3-0.04-0.5-0.06-0.4-0.06-0.8-0.1-1-0.2-2-0.3-4-0.7-6-1-5-0.8-9-1-14-2-2-0.3-4-0.5-6-0.8-2-0.2-3-0.6-5-1-2-0.6-5-1-7-2-3-0.9-6-2-9-2-3-0.7-6-1-9-2-1-0.3-3-0.5-4-0.4-0.9 0.05-1 0.2-2 0.3-0.4 0.2-0.9 0.2-1 0.5-2 1-3 2-4 4-0.5 1-0.6 2-0.9 3-0.5 3-0.5 5-0.4 8 0.08 0.8 0.1 2 0.3 2 0.06 0.3 0.09 0.6 0.2 0.8 0.4 0.7 0.9 1 1 2 1 0.5 2 1 3 2 0.6 0.2 1 0.06 2 0.04 1-0.04 4-0.4 5-0.5 4-0.5 4-0.5 8-1 7-1 15-3 22-5 5-1 5-1 0.7-11-0.4-0.8-2 0.06-3 0.1-2 0.1-5 0.3-7 0.5-6 0.4-12 0.6-18 0.5-2-0.04-4-0.1-5-0.1-0.6 0.01-1 0.04-2 0.07-7 0.3-7 10 0.5 10 0.5-0.02 1-0.05 2-0.06 2-0.03 3 0.1 5 0.1 6 0.08 12-0.2 18-0.6 2-0.1 5-0.3 7-0.5 0.4-0.03 1 0.3 1-0.1 0.07-3-0.6-6-1-10-7e-3 -0.06-0.1 0.06-0.2 0.09-0.5 0.1-1 0.3-1 0.4-7 2-14 3-21 5-3 0.5-7 1-11 1-0.4 0.05-0.9 0.06-1 0.1-0.06 7e-3 -0.2 0.04-0.2 0.07 0.8 0.5 2 0.9 2 1 1 2 0.9 1 1 2 0.02 0.08-0.04-0.2-0.05-0.2-0.01-0.1-0.09-1-0.09-1-0.1-2-0.2-4 0.2-5 0.04-0.2 0.08-0.5 0.1-0.7 0.03-0.2 0.08-0.3 0.1-0.4 8e-3 -0.04 0.03-0.2-4e-3 -0.1-0.2 0.1-0.3 0.3-0.5 0.4-0.8 0.5-0.7 0.5-1 0.6 0.04-0.04 0.1-0.02 0.2-0.07 0.01-0.03-0.1-0.03-0.07-0.04 0.2-0.1 1 0.3 1 0.2 3 0.6 6 1 8 2 3 0.7 6 1 9 2 3 0.7 5 2 8 2 2 0.5 4 0.9 6 1 2 0.3 4 0.5 6 0.8 4 0.6 9 1 13 2 2 0.4 4 0.7 7 1 0.7 0.1 2 0.4 3 0.4 0.7-0.03 1-0.1 2-0.2 1-0.7 2-1 3-2 0.4-0.4 0.6-0.9 0.8-1 0.4-0.8 0.4-2 0.5-3 0.05-0.8 0.2-2 0.2-2 0.06-0.7 0.1-1 0.1-2 0.06-1 0.2-2 0.3-3 0.2-4 0.3-7-0.03-11-0.7-3-0.5-4-4-7-0.8-0.6-2-0.5-3-0.5-2-0.06-4 1-5 1-6 2-12 5-18 7-4 2-9 4-13 7-6 4 0.7 12 6 8z" fill="#0f0"/><path d="m103 112c2-0.2 4-0.3 6-0.4 0.4-0.01 1-0.04 1-0.04 0.09 1e-3 0.2 8e-3 0.3 0.02 0.04 5e-3 0.1 0.03 0.1 0.03-0.2 0.01-0.4-0.05-0.6-0.1-0.3-0.1-0.6-0.3-0.8-0.6-0.09-0.1-0.1-0.2-0.2-0.3-0.04-0.04 0.05 0.1 0.07 0.1 1 4 2 3 9 1 0.8-0.2 0.4-1 0.7-2 0.08-2 0.06-3 0.06-5 1e-4 -2 0.05-4-2-6-1-0.9-3-0.8-5-1-0.7 0.2-1 0.4-2 0.7-0.8 0.3-5 2-6 3-4 2-2 1-7 3-7 3-3 12 4 9 3-1 7-3 10-4 0.7-0.3 2-0.6 2-0.9 0.1-0.05 0.2-0.1 0.3-0.2-1-0.5-3-0.5-4-1-0.8-0.6-1-2-1-3-0.04-0.08-0.01-0.2-0.01-0.3 3e-3 -0.05 0.01 0.1 0.02 0.2 4e-3 0.2 8e-4 0.4 1e-3 0.5 5e-4 0.2 8e-4 0.4 1e-3 0.6 2e-3 1-2e-3 2-4e-3 4 0.2-0.6 8e-3 -2 0.6-2 3-0.5 6-0.1 9 0.09 0.2 0.02 0.2 0.4 0.3 0.6 0.05 0.09-0.07-0.2-0.1-0.3-0.3-0.7-0.2-0.5-0.5-1-0.3-0.6-0.4-0.9-0.9-2-0.8-1-2-2-3-2-0.4-0.1-0.7-0.3-1-0.4-2-0.5-3-0.4-5-0.3-2 0.1-5 0.3-7 0.6-7 1-5 11 2 10z" fill="#0f0"/><path d="m100 87c0.2 0.01 0.5 0.06 0.7 0.04 3-0.3 5-0.6 8-1 4-0.8 8-2 12-3 4-1 8-2 12-3 2-0.6 3-1 5-2 0.6-0.2 1-0.4 2-0.7 7-2 3-12-4-9-0.6 0.2-1 0.4-2 0.6-2 0.5-3 1-4 1-4 1-7 2-11 3-4 0.9-8 2-12 2-1 0.2-2 0.4-4 0.6-0.6 0.1-1 0.3-2 0.3-0.2 0.02-0.3-0.02-0.5-0.02-7-0.5-8 9-0.7 10z" fill="#fc0"/><path d="m96 90c5 2 10 3 14 4 6 2 12 3 17 5 0.5 0.1 1 0.3 2 0.4 7 2 9-8 3-10-0.5-0.1-1-0.3-2-0.4-6-2-12-3-17-5-5-1-10-3-14-4-7-2-9 8-3 10z" fill="#fc0"/></g><circle cx="81" cy="60" r="4" stroke="#000" stroke-width=".3"/><circle cx="99" cy="60" r="4" stroke="#000" stroke-width=".3"/></svg>
